<?xml version="1.0" encoding="UTF-8" standalone="no"?>
<svg
   xmlns:dc="http://purl.org/dc/elements/1.1/"
   xmlns:cc="http://creativecommons.org/ns#"
   xmlns:rdf="http://www.w3.org/1999/02/22-rdf-syntax-ns#"
   xmlns:svg="http://www.w3.org/2000/svg"
   xmlns="http://www.w3.org/2000/svg"
   xmlns:sodipodi="http://sodipodi.sourceforge.net/DTD/sodipodi-0.dtd"
   xmlns:inkscape="http://www.inkscape.org/namespaces/inkscape"
   viewBox="0 0 5000 5000"
   height="5000"
   width="5000"
   xml:space="preserve"
   id="svg2"
   version="1.1"
   inkscape:version="0.91 r13725"
   sodipodi:docname="logo.svg"><sodipodi:namedview
     pagecolor="#ffffff"
     bordercolor="#666666"
     borderopacity="1"
     objecttolerance="10"
     gridtolerance="10"
     guidetolerance="10"
     inkscape:pageopacity="0"
     inkscape:pageshadow="2"
     inkscape:window-width="1440"
     inkscape:window-height="856"
     id="namedview12"
     showgrid="false"
     inkscape:zoom="0.083465368"
     inkscape:cx="-28.111256"
     inkscape:cy="2851.4821"
     inkscape:window-x="62"
     inkscape:window-y="0"
     inkscape:window-maximized="0"
     inkscape:current-layer="svg2" /><metadata
     id="metadata8"><rdf:RDF><cc:Work
         rdf:about=""><dc:format>image/svg+xml</dc:format><dc:type
           rdf:resource="http://purl.org/dc/dcmitype/StillImage" /><dc:title></dc:title></cc:Work></rdf:RDF></metadata><defs
     id="defs6" /><g
     transform="matrix(1.3333333,0,0,-1.3333333,743.46297,3913.7589)"
     id="g10"
     style="fill:#000000;fill-opacity:1"><g
       transform="scale(0.1,0.1)"
       id="g12"
       style="fill:#000000;fill-opacity:1"><path
         id="path14"
         style="fill:#000000;fill-opacity:1;fill-rule:nonzero;stroke:none"
         d="M 716.195,2943.2 C 123.762,4070.5 306.547,5345 1124.54,5789.8 c 0.83,0.5 1.68,0.9 2.52,1.3 C 996.832,5760 871.254,5710 752.855,5640.1 -90.5898,5141.6 -249.246,3818.1 398.453,2684.1 1046.16,1550.1 2254.95,1034.9 3098.39,1533.4 c 128.72,76 241.42,171.4 337.8,282.3 -52.12,-40.1 -107.47,-76.4 -166.21,-108.4 -817.96,-444.8 -1961.31,108.6 -2553.785,1235.9"
         inkscape:connector-curvature="0" /><g
         transform="scale(1.61644,1.61644)"
         id="g16"
         style="fill:#000000;fill-opacity:1"><path
           id="path18"
           style="fill:#000000;fill-opacity:1;fill-rule:nonzero;stroke:none"
           d="M 15367.1,4193.72 C 14701,3875.67 13280.8,5461.69 12195,7736.17 c -1085.8,2274.43 -1426,4376.03 -759.9,4694.13 666.2,318 2086.5,-1268 3172.2,-3542.49 1085.8,-2274.46 1426,-4376.05 759.8,-4694.09 z m -183.7,4985.79 C 13904,11804.8 12040.9,13530.6 11022,13034 10003,12537.5 10214.2,10006.7 11493.6,7381.37 12773,4756.06 14636.2,3030.3 15655,3526.88 c 1019,496.52 807.8,3027.33 -471.6,5652.63"
           inkscape:connector-curvature="0" /></g><g
         transform="scale(1.44604,1.44604)"
         id="g20"
         style="fill:#000000;fill-opacity:1"><path
           id="path22"
           style="fill:#000000;fill-opacity:1;fill-rule:nonzero;stroke:none"
           d="M 7940.81,2430.3 C 8136.03,1685.85 8087.21,807.171 7452.65,685.181 4919.52,197.99 4627.52,467.898 4393.08,1860.12 l 4106.63,670.59 c -253.24,-50.69 -558.9,-100.41 -558.9,-100.41 z M 8270.26,965.881 C 7989.56,453.308 7238.13,273.782 7238.13,273.782 7884.86,517.83 8280.7,773.423 8258.09,1502.8 c -36.65,634.63 -61.07,634.56 -146.47,951.91 l 122.06,12.17 c 0,0 317.28,-988.49 36.58,-1500.999 z M 3767.17,1771.26 c 0,0 36.6,0 73.21,12.24 24.41,-183.06 158.65,-756.63 329.5,-1073.907 C 4340.73,392.314 4938.71,187.131 5707.53,235.955 4256.67,74.7544 3947.62,469.421 3767.17,1771.26 Z M 16241.1,3878.19 c -1125.8,472.39 -2540.2,2092.61 -3597.8,4262.82 -1052.9,2160.49 -1458.5,4263.59 -1144.8,5444.39 -2.9,26.2 -5.7,52.2 -8.5,78.6 L 1870.01,4522.98 c 0,0 -139.25,-146.68 -977.73,-582.28 -1257.616,-675.09 138.68,-3399.15 1516.21,-2566.05 691.94,337.89 1058.2,334.23 1058.2,334.23 l 118.35,19.29 C 3738.94,635.668 4074.55,-39.2803 5182.78,1.7991 5841.77,26.1383 7513.64,209.263 8136.03,526.541 8756.42,842.786 9012.98,1413.73 8712.5,2565.5 L 16300,3804.47 c -19.7,24.75 -39.4,49.23 -58.9,73.72"
           inkscape:connector-curvature="0" /></g></g></g></svg>